<svg height="18" viewBox="0 0 18 18" width="18" xmlns="http://www.w3.org/2000/svg"><path d="M15.3,10.8 L15.3,13.5 L18,13.5 L18,15.3 L15.3,15.3 L15.3,18 L13.5,18 L13.5,15.3 L10.8,15.3 L10.8,13.5 L13.5,13.5 L13.5,10.8 L15.3,10.8 Z M9.89092685,9.01097966 L11.699,9.726 L11.699,11.7 L9,11.7 L9,14.399 L0,14.4 L0,10.8 L4.49685891,9.01097966 L9.89092685,9.01097966 Z M7.2,0 C9.1882251,0 10.8,1.6117749 10.8,3.6 C10.8,5.5882251 9.1882251,7.2 7.2,7.2 C5.2117749,7.2 3.6,5.5882251 3.6,3.6 C3.6,1.6117749 5.2117749,0 7.2,0 Z" fill="#524f53" fill-rule="evenodd" /></svg>
