<svg height="18" viewBox="0 0 18 18" width="18" xmlns="http://www.w3.org/2000/svg"><path d="m12.9618311 8.8091554 1.0381689 1.03816892-1.557 1.55767568 1.557 1.5568311-1.0381689 1.0381689-1.5578311-1.557-1.55667568 1.557-1.03816892-1.0381689 1.5568446-1.5578311-1.5568446-1.55667568 1.03816892-1.03816892 1.55667568 1.5568446zm-4.89417261-1.45923687.83234151.32908147-2.16718244 2.16832432 1.55618244 1.55667568-.341.341-7.948.0005405v-2.9363851l3.66791935-1.45923687zm-2.19488822-7.34991853c1.62172073 0 2.93638513 1.3146644 2.93638513 2.93638513s-1.3146644 2.93638514-2.93638513 2.93638514-2.93638514-1.31466441-2.93638514-2.93638514 1.31466441-2.93638513 2.93638514-2.93638513z" fill="#524f53" fill-rule="evenodd" transform="translate(2 2)"/></svg>