<svg enable-background="new 0 0 18 18" viewBox="0 0 18 18" xmlns="http://www.w3.org/2000/svg"><path clip-rule="evenodd" d="m7.15 7.04.5 1.42h-1zm2.72-1.25c-.28 0-.51.22-.51.5v3.4c0 .25.22.46.48.46h1.62c.63 0 .63-.91 0-.92h-1.07v-2.94c-.01-.27-.24-.5-.52-.5zm2.76 0c-.28 0-.5.22-.5.5v3.42c0 .65 1 .65 1.01 0v-1.09l.17-.17 1.18 1.55c.25.35.86.2.9-.23.02-.13-.02-.26-.1-.37l-1.24-1.63 1.15-1.14c.28-.28-.01-.78-.38-.77-.11 0-.21.04-.28.11l-1.4 1.4c-.06-.56.23-1.55-.51-1.58zm-5.48 0c-.33.01-.59.26-.67.5l-1.2 3.15c-.36.88.67.95.86.56l.25-.65h1.54l.25.65c.05.14.21.22.42.22l.11-.01c.33-.07.5-.17.33-.77l-1.2-3.15c-.11-.24-.36-.49-.69-.5zm-1.69 0h-2.58c-.65 0-.65.98 0 .98h.79v2.97c0 .26.23.48.5.48.28 0 .5-.21.5-.48v-2.97h.79c.64 0 .64-.97 0-.98zm3.53-4.79c4.82 0 8.73 3.06 8.73 6.84.14 4.28-5.35 7.56-10.28 6.73-.5.35-3.25 2.28-3.69 2.42 0 0-.11.04-.21-.01-.1-.06-.08-.2-.08-.2.03-.2.75-2.68.89-3.14-7.61-3.92-3.71-12.69 4.64-12.64z" fill="#524f53" fill-rule="evenodd"/></svg>