<svg enable-background="new 0 0 18 18" viewBox="0 0 18 18" xmlns="http://www.w3.org/2000/svg"><path clip-rule="evenodd" d="m9.27 2.15c1.94-.01 3.83.92 5.04 2.46 1 1.21 1.55 2.82 1.54 4.4h1.15l-2.29 2.29-2.29-2.29h1.5c.11-4.23-5.25-6.59-8.08-3.29l-1.41-1.38c1.24-1.39 2.99-2.2 4.84-2.19zm.22 3.43v.98h1.96v.98h-3.92v.98h3.92v2.94h-1.96v.98h-.98v-.98h-1.96v-.98h3.92v-.98h-3.92v-2.94h1.96v-.98zm-6.22 1.14 2.3 2.29h-1.47c-.14 4.15 5.23 6.54 8.08 3.42l1.4 1.43c-2.62 2.84-7.52 2.61-9.86-.45-1.02-1.2-1.57-2.82-1.57-4.4h-1.15z" fill="#484649" fill-rule="evenodd"/></svg>