<svg enable-background="new 0 0 18 18" viewBox="0 0 18 18" xmlns="http://www.w3.org/2000/svg"><path clip-rule="evenodd" d="m7.35 10.8v-4.56l4.31 2.29zm9.47-5.34s-.16-1.12-.64-1.61c-.61-.65-1.29-.65-1.6-.69-2.23-.17-5.58-.17-5.58-.17-.02 0-3.34 0-5.59.17-.31.03-.99.04-1.59.68-.48.5-.64 1.61-.64 1.61-.05 0-.23 2.97-.17 3.86.13 2.69-.07 4.74 2.56 4.93 5.23.22 5.31.25 11.01-.01.31-.04.99-.04 1.6-.69.48-.49.64-1.61.64-1.61.05.01.22-2.97.17-3.86 0-1.3-.17-2.61-.17-2.61z" fill="#524f53" fill-rule="evenodd"/></svg>